<svg width="16" height="16" viewBox="0 0 16 16" fill="none" xmlns="http://www.w3.org/2000/svg">
<path d="M12.998 5.326L7.99995 10.198L3.00195 5.326C2.91266 5.23877 2.79278 5.18993 2.66795 5.18993C2.54312 5.18993 2.42325 5.23877 2.33395 5.326C2.29072 5.36836 2.25637 5.41893 2.23292 5.47474C2.20947 5.53054 2.19739 5.59047 2.19739 5.651C2.19739 5.71153 2.20947 5.77146 2.23292 5.82726C2.25637 5.88307 2.29072 5.93364 2.33395 5.976L7.65095 11.16C7.74433 11.251 7.86956 11.302 7.99995 11.302C8.13035 11.302 8.25558 11.251 8.34895 11.16L13.666 5.977C13.7095 5.9346 13.7441 5.88391 13.7677 5.82792C13.7914 5.77193 13.8035 5.71177 13.8035 5.651C13.8035 5.59023 13.7914 5.53007 13.7677 5.47408C13.7441 5.41809 13.7095 5.3674 13.666 5.325C13.5767 5.23777 13.4568 5.18893 13.332 5.18893C13.2071 5.18893 13.0872 5.23777 12.998 5.325V5.326Z" fill="black"/>
</svg>
